<?xml version="1.0" encoding="UTF-8" standalone="no"?>
<!-- Created with Inkscape (http://www.inkscape.org/) -->

<svg
   width="135.3118mm"
   height="135.34387mm"
   viewBox="0 0 135.3118 135.34387"
   version="1.1"
   id="svg1"
   xmlns="http://www.w3.org/2000/svg"
   xmlns:svg="http://www.w3.org/2000/svg">
  <defs
     id="defs1" />
  <g
     id="layer1"
     transform="translate(-2.3812505,-33.07292)">
    <path
       style="fill:#000000;stroke-width:0.264583"
       d="M 63.865145,168.23922 C 50.116189,166.82153 37.506171,161.61985 27.14673,153.09272 14.190567,142.42818 5.573716,127.24347 3.1260027,110.76313 0.44292929,92.698144 5.0573525,74.696942 16.194212,59.783089 c 2.424236,-3.246401 9.64049,-10.462657 12.88689,-12.886891 21.76036,-16.24946 50.124364,-18.330712 73.677798,-5.406226 9.7694,5.36077 18.74037,13.857544 24.78498,23.474867 4.84228,7.704349 8.3092,17.301065 9.64275,26.691876 0.67523,4.754975 0.67523,13.501275 0,18.256245 -1.64569,11.58889 -6.10922,22.35855 -13.2041,31.85901 -2.43825,3.26496 -9.64758,10.4743 -12.91254,12.91254 -9.31754,6.95828 -19.793651,11.37245 -31.008846,13.06579 -4.049998,0.6115 -12.525907,0.86735 -16.195999,0.48892 z M 75.677218,158.1877 c 23.739541,-2.39406 43.507652,-18.95999 49.933672,-41.84509 1.55938,-5.55345 1.9969,-8.96216 1.9969,-15.55777 0,-5.022411 -0.0941,-6.483027 -0.60172,-9.342551 -2.21346,-12.468252 -7.582,-22.854013 -16.30116,-31.535574 C 93.149364,42.42688 66.52917,38.141583 44.320189,49.220152 c -16.792262,8.376534 -28.21416,24.055017 -31.30087,42.965729 -0.729045,4.466498 -0.65817,13.421569 0.142,17.941509 2.180432,12.31666 7.507173,22.70909 16.038735,31.29145 12.209235,12.28192 29.414496,18.48955 46.477164,16.76886 z m -8.042407,-17.20454 c -0.546061,-0.28827 -1.319967,-1.01838 -1.719792,-1.62247 l -0.726956,-1.09835 -0.132292,-21.2546 -0.132291,-21.254601 -5.953126,5.973691 c -3.274219,3.28554 -6.394866,6.2036 -6.934772,6.4846 -1.147069,0.59701 -3.032268,0.66497 -4.256505,0.15345 -1.13084,-0.4725 -2.47038,-2.02973 -2.81573,-3.27333 -0.351055,-1.26414 -0.348719,-1.49166 0.02895,-2.82081 0.262268,-0.92301 1.905865,-2.697049 10.78177,-11.637431 5.759781,-5.801622 11.001657,-10.891544 11.648611,-11.310937 0.940763,-0.609857 1.47339,-0.762532 2.660179,-0.762532 1.186791,0 1.719415,0.152675 2.660179,0.762532 0.646953,0.419393 5.8944,5.509315 11.660991,11.310937 10.126779,10.188301 10.495494,10.594741 10.800533,11.905671 0.552627,2.37496 -0.685621,4.93496 -2.817927,5.8259 -1.224237,0.51152 -3.109433,0.44356 -4.256505,-0.15345 -0.539904,-0.281 -3.660553,-3.19908 -6.934772,-6.48462 l -5.953125,-5.973713 -0.132291,21.254653 -0.132292,21.25465 -0.727898,1.09974 c -1.368351,2.06737 -4.374147,2.80395 -6.614937,1.62102 z M 40.407158,69.064849 c -3.752651,-2.379861 -2.732413,-7.998005 1.635167,-9.004371 1.631337,-0.375886 54.449724,-0.375886 56.08106,0 4.367585,1.006366 5.387815,6.62451 1.635165,9.004371 L 98.554254,69.82859 H 70.082855 41.611454 Z"
       id="path1" />
  </g>
</svg>
