<?xml version="1.0" encoding="UTF-8" standalone="no"?>
<!-- Created with Inkscape (http://www.inkscape.org/) -->

<svg
   width="30.600121mm"
   height="30.654146mm"
   viewBox="0 0 30.600121 30.654146"
   version="1.1"
   id="svg1"
   xmlns="http://www.w3.org/2000/svg"
   xmlns:svg="http://www.w3.org/2000/svg">
  <defs
     id="defs1" />
  <g
     id="layer1"
     transform="translate(-89.69375,-133.35)">
    <path
       style="fill:#000000;stroke-width:0.264583"
       d="m 102.85124,163.88577 c -4.769516,-0.74071 -9.151725,-3.79137 -11.277187,-7.85057 -1.381365,-2.63812 -1.880303,-4.5952 -1.880303,-7.37546 0,-5.16547 2.484785,-9.897 6.652499,-12.66769 6.191161,-4.11587 14.320271,-3.35756 19.496541,1.81871 2.85829,2.85829 4.45108,6.74053 4.45108,10.84898 0,8.12799 -6.18023,14.71055 -14.37402,15.30974 -0.94588,0.0692 -2.32676,0.0315 -3.06861,-0.0837 z m 5.66602,-8.01764 c 0.0547,-0.47547 -0.0604,-0.78445 -0.33073,-0.8882 -0.22803,-0.0875 -0.4146,-0.32269 -0.4146,-0.52263 0,-0.19993 -0.29869,-0.43849 -0.66376,-0.53012 -0.81159,-0.20369 -0.85364,-0.3933 -1.0508,-4.73828 -0.0858,-1.89177 -0.22681,-4.12419 -0.31326,-4.96093 -0.15347,-1.48537 -0.14167,-1.52136 0.49896,-1.52136 0.72835,0 2.32423,0.48335 2.69161,0.81521 0.3437,0.31048 -1.47086,7.12229 -1.89726,7.12229 -0.56334,0 -0.67451,0.75521 -0.21452,1.45725 0.40912,0.6244 0.56242,0.65942 2.88659,0.65942 2.68069,0 3.08953,-0.18207 3.08953,-1.37583 0,-0.55959 -0.12697,-0.74084 -0.51897,-0.74084 -0.54186,0 -0.5476,-0.0146 -1.46332,-3.70416 -0.23476,-0.94589 -0.48467,-1.91728 -0.55535,-2.15865 -0.11279,-0.38517 0.0669,-0.42113 1.46914,-0.29398 1.10341,0.10005 1.59766,0.0516 1.59766,-0.15646 0,-0.16573 -0.38695,-0.30143 -0.85989,-0.30154 -0.47294,-1.1e-4 -1.63012,-0.36458 -2.57151,-0.80993 -0.94138,-0.44534 -2.12769,-0.89616 -2.63623,-1.00182 -0.67296,-0.13982 -0.96487,-0.36265 -1.07253,-0.81868 -0.31528,-1.33554 -1.87391,-1.38693 -2.07068,-0.0683 -0.0618,0.41439 -0.42919,0.65673 -1.45521,0.95997 -0.75487,0.22309 -1.95821,0.70563 -2.674098,1.07229 -0.715886,0.36665 -1.698152,0.66665 -2.182812,0.66665 -0.484661,0 -0.881201,0.11906 -0.881201,0.26458 0,0.34179 1.739302,0.34356 2.376733,0.002 0.440843,-0.23593 0.403957,0.0619 -0.368629,2.97657 -0.629559,2.37507 -0.976493,3.26154 -1.301005,3.32427 -0.523139,0.10113 -0.608557,1.36237 -0.125016,1.84591 0.201312,0.20131 1.215728,0.3175 2.772028,0.3175 2.32417,0 2.47747,-0.035 2.88659,-0.65941 0.49995,-0.76303 0.33544,-1.45716 -0.34542,-1.45745 -0.38246,-1.7e-4 -0.63915,-0.65126 -1.36147,-3.45343 -0.48958,-1.89928 -0.84677,-3.49041 -0.79375,-3.53584 0.38861,-0.33302 1.47051,-0.73371 2.50071,-0.92617 l 1.22125,-0.22816 -0.14943,1.35992 c -0.0822,0.74796 -0.21652,2.66961 -0.29853,4.27033 -0.25081,4.89578 -0.37595,5.68855 -0.89793,5.68855 -0.89114,0 -2.01936,2.15649 -1.43431,2.74154 0.10115,0.10115 1.67873,0.15076 3.50573,0.11025 l 3.32182,-0.0737 z m -6.30158,0.0676 c 0,-0.15959 1.10244,-0.26458 2.77813,-0.26458 1.67569,0 2.77812,0.10499 2.77812,0.26458 0,0.15959 -1.10243,0.26458 -2.77812,0.26458 -1.67569,0 -2.77813,-0.10499 -2.77813,-0.26458 z m 0.52917,-1.32292 c 0,-0.15564 0.92604,-0.26458 2.24896,-0.26458 1.32292,0 2.24896,0.10894 2.24896,0.26458 0,0.15564 -0.92604,0.26459 -2.24896,0.26459 -1.32292,0 -2.24896,-0.10895 -2.24896,-0.26459 z m 1.7644,-5.62239 c 0.17234,-2.65576 0.33772,-5.18584 0.3675,-5.6224 0.0929,-1.36153 0.4441,2.12665 0.64436,6.39971 l 0.18987,4.05133 h -0.75754 -0.75754 z m -6.605573,3.07427 c -0.102249,-0.10225 -0.185908,-0.34465 -0.185908,-0.53868 0,-0.26942 0.598546,-0.35278 2.532941,-0.35278 2.26966,0 2.52374,0.0481 2.44442,0.46302 -0.0747,0.39054 -0.4421,0.47487 -2.34703,0.53869 -1.242186,0.0416 -2.342174,-0.008 -2.444423,-0.11025 z m 9.515483,-0.01 c -0.097,-0.097 -0.17639,-0.33513 -0.17639,-0.52916 0,-0.26923 0.59531,-0.35278 2.51354,-0.35278 1.97207,0 2.51354,0.0794 2.51354,0.36857 0,0.20271 -0.18833,0.44084 -0.41851,0.52916 -0.56736,0.21772 -4.21166,0.20474 -4.43218,-0.0158 z m -8.025724,-4.34626 0.805084,-2.93515 0.7373,2.73671 c 0.40552,1.50519 0.74032,2.82601 0.744,2.93515 0.004,0.10914 -0.69039,0.19844 -1.54238,0.19844 h -1.549088 z m 8.657434,2.73672 c 0.008,-0.10914 0.34931,-1.4486 0.75872,-2.97657 l 0.74437,-2.77812 0.31535,1.19062 c 0.17344,0.65485 0.53721,1.9943 0.80839,2.97657 l 0.49304,1.78593 h -1.56711 c -0.86191,0 -1.56066,-0.0893 -1.55276,-0.19843 z m -3.40719,-8.94367 c 0.11966,-0.5747 0.58923,-0.60987 0.69664,-0.0522 0.0558,0.28962 -0.074,0.46302 -0.34651,0.46302 -0.25419,0 -0.40004,-0.17114 -0.35013,-0.41085 z"
       id="path1" />
  </g>
</svg>
