<svg class="svg-icon" style="width: 1em; height: 1em;vertical-align: middle;fill: currentColor;overflow: hidden;" viewBox="0 0 1024 1024" version="1.1" xmlns="http://www.w3.org/2000/svg"><path d="M511.48218469 1003.9245432c-271.85303703 0-493.47798914-221.1071368-493.47798914-493.47798912s221.1071368-493.47798914 493.47798914-493.47798914 493.47798914 221.1071368 493.47798914 493.47798914-221.1071368 493.47798914-493.47798914 493.47798912z m0-950.19109135c-252.17605531 0-457.23091753 205.05486222-457.23091752 457.23091754 0 252.17605531 205.05486222 457.23091753 457.23091752 457.23091752 252.17605531 0 457.23091753-205.05486222 457.23091753-457.23091752 0-252.17605531-205.05486222-457.23091753-457.23091753-457.23091754z" fill="#7B7B7B" /><path d="M549.28270222 182.15164839c-18.64135111-16.57008987-46.60337778-16.57008987-65.24472889 0l-263.0501768 249.58697878c-9.83849086 9.32067555-10.35630617 24.3373195-1.55344592 34.17581036 8.80286025 9.83849086 23.81950419 10.35630617 34.17581037 1.55344594l4.14252249-4.14252249V724.30427653c0 26.92639605 21.74824297 48.67463902 48.674639 48.67463902h141.36357926v-146.02391703c0-18.64135111 15.01664395-34.17581037 34.17581037-34.17581037H548.24707161c18.64135111 0 34.17581037 15.53445925 34.17581036 34.17581037v146.02391703h144.47047112c26.92639605 0 48.67463902-21.74824297 48.67463901-48.67463902v-257.35420838c10.87412148 9.83849086 25.89076543 8.80286025 35.21144099-1.03563062 8.80286025-9.83849086 8.28504494-25.37295013-1.55344592-34.17581036l-259.94328495-249.58697878z" fill="#7B7B7B" /></svg>