<?xml version="1.0" encoding="UTF-8" standalone="no"?>
<!-- Created with Inkscape (http://www.inkscape.org/) -->

<svg
   width="704.31506mm"
   height="704.38153mm"
   viewBox="0 0 704.31506 704.38153"
   version="1.1"
   id="svg1"
   xmlns="http://www.w3.org/2000/svg"
   xmlns:svg="http://www.w3.org/2000/svg">
  <defs
     id="defs1" />
  <path
     d="M 368.56214,704.31402 H 478.3455 v 0.0675 c -18.63952,-10e-4 -62.87193,-10e-4 -109.78336,-0.0675 z M 174.30588,0.41238 C 158.48557,0.68868 142.52915,1.71915 128.22026,4.40328 112.67215,7.35961 98.50243,11.28194 84.33168,18.50341 69.95628,25.79447 57.57632,35.77068 46.49903,46.56861 35.7011,57.64283 25.72898,70.0934 18.43588,84.40126 11.28195,98.57201 7.29105,112.67214 4.33268,128.28677 c -2.68004,14.30889 -3.71461,30.26531 -3.9909,46.08971 -0.0675,3.57646 -0.0675,6.87867 -0.13712,12.03818 L 0,495.95762 c 0,3.91926 0.0675,8.1844 0.0675,12.86398 0.13712,11.21135 0.20773,15.81929 0.27526,21.11593 0.2763,15.82031 1.31086,31.78082 3.9909,46.08868 1.30676,6.80806 2.75065,13.34392 4.60795,19.67204 2.40886,8.1844 5.43478,16.16619 9.49525,24.14287 7.29208,14.37949 17.26523,26.75945 28.06315,37.83265 11.07729,10.801 23.52786,20.77414 37.83266,28.06622 14.17074,7.15393 28.27395,11.1438 43.88858,14.1032 14.30889,2.68004 30.2653,3.71154 46.08561,3.9868 5.29664,0.0706 9.90459,0.13713 21.119,0.27527 10.6608,0.0706 19.39677,0.13713 25.86202,0.13713 H 368.49256 V 431.1588 H 279.96634 V 329.00931 h 87.90814 v -95.06719 c 0,-72.9822 56.40669,-125.26189 129.31827,-125.26189 l 94.37851,2.06605 v 98.08902 h -72.08885 c -20.84065,0 -37.76614,23.04486 -37.76614,43.95612 v 76.21687 H 588.06541 L 572.93072,431.22532 H 478.34857 V 704.31197 H 482.89 c 6.46525,0 15.20122,-0.0706 25.86202,-0.13712 8.87309,-0.0706 13.62021,-0.13712 17.81372,-0.13712 1.1021,0 2.2042,0 3.37281,-0.0706 15.82032,-0.27629 31.78082,-1.30676 46.08869,-3.99089 15.54402,-2.95531 29.71477,-6.87867 43.88551,-14.10014 14.37541,-7.29208 26.75536,-17.2642 37.83265,-28.06622 10.79895,-11.07422 20.77414,-23.52478 28.06622,-37.83265 7.15394,-14.16972 11.14074,-28.27088 14.10014,-43.88551 2.68311,-14.30889 3.7146,-30.26531 3.99089,-46.08971 0.0675,-5.29664 0.13713,-9.90458 0.27527,-21.11593 0.0665,-10.6608 0.13712,-19.39676 0.13712,-25.86201 l 1e-5,-261.598 v -7.49674 c 0,-5.23012 -0.0706,-11.41908 -0.13713,-18.43691 -0.13712,-11.21134 -0.20773,-15.81929 -0.27526,-21.11592 -0.2763,-15.82339 -1.30677,-31.78083 -3.9909,-46.08972 C 696.95338,112.74276 693.0331,98.57202 685.81163,84.40127 678.51954,70.02587 668.54436,57.64182 657.74541,46.56862 646.66812,35.77069 634.22062,25.79448 619.91275,18.50343 605.74201,11.34847 591.6388,7.3586 576.02724,4.40329 561.71835,1.72018 545.75785,0.68869 529.93855,0.4124 524.64192,0.3418 520.03397,0.27527 508.82263,0.13713 498.09122,0.06653 489.35526,0 482.89001,0 H 221.28689 c -6.46525,0 -15.20121,0.0675 -25.86202,0.13713 -11.21441,0.13712 -15.82236,0.20466 -21.11899,0.27526 z m 0,0"
     id="path1" />
</svg>
