<?xml version="1.0" encoding="UTF-8" standalone="no"?>
<svg
   class="svg-icon"
   style="overflow:hidden;fill:currentColor"
   viewBox="0 0 722.76886 722.76874"
   version="1.1"
   id="svg3"
   width="722.76886"
   height="722.76874"
   xmlns="http://www.w3.org/2000/svg"
   xmlns:svg="http://www.w3.org/2000/svg">
  <defs
     id="defs3" />
  <g
     id="g4"
     transform="translate(-71.343736,-1076.5448)">
    <g
       id="g3"
       transform="translate(-78.368286,920.44343)">
      <path
         d="m 391.31429,409.6 c 0,65.82857 54.85714,120.68571 120.68571,120.68571 65.82857,0 120.68571,-54.85714 120.68571,-120.68571 0,-65.82857 -54.85714,-120.68571 -120.68571,-120.68571 -67.65714,0 -120.68571,53.02857 -120.68571,120.68571 z m 204.8,0 c 0,45.71429 -38.4,84.11429 -84.11429,84.11429 -45.71429,0 -84.11429,-38.4 -84.11429,-84.11429 0,-45.71429 38.4,-84.11429 84.11429,-84.11429 45.71429,0 84.11429,36.57143 84.11429,84.11429 z m 117.02857,160.91429 c 3.65714,-3.65715 5.48571,-9.14286 5.48571,-12.8 0,-5.48572 -1.82857,-9.14286 -5.48571,-12.8 -7.31429,-7.31429 -18.28572,-7.31429 -25.6,0 -3.65715,3.65714 -5.48572,7.31428 -5.48572,12.8 0,5.48571 1.82857,9.14285 5.48572,12.8 3.65714,3.65714 9.14285,5.48571 12.8,5.48571 3.65714,0 9.14285,-1.82857 12.8,-5.48571 z"
         fill="#1a1a1a"
         id="path1" />
      <path
         d="m 512,159.08571 c -140.8,0 -256,115.2 -256,256 0,146.28572 217.6,398.62858 254.17143,402.28572 31.08571,0 138.97143,-142.62857 164.57143,-182.85714 5.48571,-9.14286 3.65714,-20.11429 -5.48572,-25.6 -9.14285,-5.48572 -20.11428,-3.65715 -25.6,5.48571 C 588.8,694.85714 530.28571,758.85714 510.17143,777.14286 468.11429,742.4 290.74286,543.08571 290.74286,415.08571 290.74286,294.4 389.48571,195.65714 510.17143,195.65714 630.85714,195.65714 729.6,294.4 729.6,415.08571 c 0,14.62858 -1.82857,31.08572 -7.31429,47.54286 -3.65714,10.97143 -7.31428,23.77143 -12.8,36.57143 -3.65714,9.14286 0,20.11429 9.14286,23.77143 9.14286,3.65714 20.11429,0 23.77143,-9.14286 C 747.88571,499.2 753.37143,486.4 757.02857,473.6 c 5.48571,-21.94286 9.14286,-40.22857 9.14286,-58.51429 C 768,272.45714 652.8,159.08571 512,159.08571 Z"
         fill="#1a1a1a"
         id="path2" />
      <path
         d="m 630.85714,727.77143 c -9.14285,-1.82857 -20.11428,5.48571 -21.94285,14.62857 -1.82858,9.14286 5.48571,20.11429 14.62857,21.94286 65.82857,12.8 82.28571,31.08571 82.28571,32.91428 0,10.97143 -60.34286,43.88572 -193.82857,43.88572 -133.48571,0 -193.82857,-32.91429 -193.82857,-43.88572 0,-3.65714 14.62857,-20.11428 76.8,-32.91428 C 404.11429,762.51429 411.42857,753.37143 409.6,742.4 407.77143,733.25714 398.62857,725.94286 387.65714,727.77143 340.11429,736.91429 281.6,757.02857 281.6,795.42857 c 0,54.85714 118.85714,80.45714 230.4,80.45714 111.54286,0 230.4,-25.6 230.4,-80.45714 0,-38.4 -60.34286,-58.51428 -111.54286,-67.65714 z"
         fill="#1a1a1a"
         id="path3" />
    </g>
    <rect
       style="opacity:0;fill:#ffffff;stroke:#ed0009;stroke-width:0.944882;stroke-miterlimit:0;stroke-opacity:0.997295;paint-order:markers stroke fill"
       id="rect3"
       width="721.82397"
       height="721.82385"
       x="71.816177"
       y="1077.0172"
       ry="0" />
  </g>
</svg>
