<?xml version="1.0" encoding="UTF-8" standalone="no"?>
<svg
   width="94.86647mm"
   height="94.786964mm"
   viewBox="0 0 94.86647 94.786964"
    <path
       style="fill:#008000;stroke-width:0.264583"
       d="m 41.690335,94.611973 c -6.850975,-0.94814 -12.687157,-2.97387 -19.05,-6.61226 C 16.60687,84.549663 9.7299493,77.431283 6.2033793,70.985633 2.4271243,64.083623 0.75350434,58.543863 0.14930334,50.946393 c -0.781039,-9.82113 1.50723896,-19.36699 6.74775796,-28.14917 1.370986,-2.29753 2.145337,-3.39147 4.2153467,-5.95505 0.703212,-0.87089 4.846645,-5.01433 5.717535,-5.71754 2.563587,-2.0700101 3.65752,-2.8443601 5.955051,-4.2153501 11.969787,-7.14261996 25.558479,-8.794722 38.950159,-4.73552 4.40584,1.33547 12.064,5.32177 14.79997,7.70384 0.46521,0.4050301 1.41199,1.2126701 2.10395,1.7947501 3.235816,2.722 7.476276,7.70335 9.347096,10.98021 0.77829,1.36324 2.86274,5.59192 3.78221,7.67291 1.81171,4.10038 3.10723,11.28921 3.09804,17.19098 -0.0119,7.65955 -1.53568,14.17658 -4.90636,20.98452 -3.44963,6.96739 -7.75695,12.20141 -13.871836,16.85627 -1.72708,1.31472 -6.87297,4.49948 -7.27017,4.49948 -0.0441,0 -1.19499,0.52317 -2.55758,1.1626 -2.71165,1.27252 -6.96798,2.55818 -10.67951,3.22583 -2.77692,0.49953 -11.30451,0.72472 -13.890628,0.36682 z m 10.054168,-18.57697 c 0,-0.11065 -1.01203,-0.20119 -2.24896,-0.20119 h -2.24896 v -12.17084 -12.17083 h -2.8599 -2.859903 l -1.902597,2.09688 -1.902598,2.09688 v 10.07395 10.07396 h -2.38125 c -1.309687,0 -2.386311,0.0893 -2.392497,0.19843 -0.0062,0.10915 2.107173,2.28493 4.696354,4.83507 l 4.707601,4.63663 4.69635,-4.63387 c 2.583,-2.54863 4.69636,-4.72441 4.69636,-4.83507 z m -26.458334,-2.26075 c 0,-0.11411 -0.654844,-0.85419 -1.455209,-1.64461 -0.800364,-0.79042 -1.455208,-1.57157 -1.455208,-1.73589 0,-0.16432 0.251809,-0.52557 0.559573,-0.80279 0.307766,-0.27722 4.594066,-4.62679 9.525113,-9.66571 l 8.965539,-9.16169 -0.396986,-0.95013 c -0.922978,-2.20899 -0.488741,-3.53604 2.413232,-7.37494 1.21927,-1.61294 2.21665,-3.06343 2.21638,-3.22333 -2.6e-4,-0.1599 -0.63562,-1.00044 -1.41191,-1.86787 l -1.41145,-1.57714 -10.767139,10.70526 c -5.921928,5.8879 -12.15775,12.03268 -13.857383,13.65506 l -3.090243,2.94979 -1.722835,-1.54 c -0.947557,-0.847 -1.815436,-1.48277 -1.928611,-1.41282 -0.113178,0.07 -0.20578,3.21578 -0.20578,6.99073 v 6.86355 h 7.011458 c 3.856302,0 7.011459,-0.0934 7.011459,-0.20747 z m 48.683334,-6.48648 c 0,-6.49691 -0.0937,-7.32896 -0.82557,-7.32896 -0.1048,0 -0.7588,0.7739 -1.45331,1.71979 -0.69452,0.94588 -1.28482,1.71979 -1.31177,1.71979 -0.0269,0 -4.18524,-4.07789 -9.24063,-9.06198 -5.05539,-4.98409 -9.28111,-9.09649 -9.39049,-9.13868 -0.10939,-0.0422 -0.9883,0.98353 -1.95314,2.27937 l -1.75426,2.35608 v 2.50175 2.50175 l 2.28804,2.36262 c 1.25843,1.29945 4.67169,4.7725 7.58503,7.71789 l 5.29697,5.35525 -1.63189,1.69945 c -0.89754,0.9347 -1.6319,1.76929 -1.6319,1.85464 0,0.0854 3.15516,0.15519 7.01146,0.15519 h 7.01146 z m -27.39504,-17.14467 c 0.51358,-0.45094 1.96204,-2.20711 3.2188,-3.90261 3.68889,-4.9767 4.30637,-5.49053 8.48292,-7.05889 0.99148,-0.37232 3.92171,-1.5787 6.51162,-2.68085 3.89299,-1.65668 4.95687,-2.23051 6.13984,-3.31167 1.80054,-1.6456 2.6331,-3.38005 3.14301,-6.54777 0.21751,-1.3513 0.43257,-2.4816 0.47789,-2.51177 0.0453,-0.0302 2.03715,-0.79167 4.42626,-1.69223 2.389106,-0.90055 4.402506,-1.69603 4.474216,-1.76774 0.21463,-0.21464 -1.21897,-3.61817 -2.05201,-4.87169 -1.32691,-1.99665 -3.171986,-3.68095 -5.075556,-4.63327 -2.19529,-1.09826 -5.37742,-1.8522001 -7.0706,-1.6752401 -0.70421,0.0736 -4.81451,1.5494601 -9.56885,3.4358201 -4.58391,1.81874 -10.8833,4.30494 -13.99865,5.5249 -7.48561,2.93131 -7.05567,2.50228 -10.442086,10.42018 -3.519704,8.22955 -3.639277,9.66266 -1.035354,12.40921 l 0.978535,1.03213 2.156452,-2.29147 2.156452,-2.29148 0.155953,-1.86021 c 0.1777,-2.11962 1.035979,-4.22369 2.196145,-5.38386 0.875293,-0.87529 2.944753,-1.87499 4.404943,-2.12791 l 0.99219,-0.17185 v 1.68973 c 0,1.92208 0.4805,3.76575 1.27061,4.87536 l 0.54017,0.75861 -2.128,2.76628 c -1.1704,1.52146 -2.94705,3.94656 -3.9481,5.38911 -1.606629,2.3152 -1.819891,2.76516 -1.818351,3.83646 0.003,2.12168 1.282571,3.43573 3.362491,3.45322 0.87765,0.007 1.31422,-0.16531 2.04906,-0.8105 z m 14.87724,-0.49027 c 1.26374,-0.77055 1.43329,-1.76234 1.12644,-6.58937 -0.14354,-2.25808 -0.31067,-4.15529 -0.3714,-4.21602 -0.0607,-0.0607 -1.33825,0.2997 -2.83893,0.80095 l -2.72852,0.91136 0.002,3.54797 c 0.002,3.92843 0.28237,5.04432 1.42389,5.66472 0.97851,0.53181 2.40086,0.48158 3.38682,-0.11961 z m -5.33443,-4.57683 c -0.20279,-3.28226 -0.31906,-3.90261 -0.73147,-3.90261 -0.33128,0 -3.11213,2.62647 -3.11213,2.93937 0,0.25272 3.52455,3.66479 3.79151,3.67051 0.1208,0.003 0.14424,-1.21569 0.0521,-2.70727 z"

</svg>
