<?xml version="1.0" encoding="UTF-8" standalone="no"?>
<!-- Created with Inkscape (http://www.inkscape.org/) -->

<svg
   width="117.96146mm"
   height="118.19922mm"
   viewBox="0 0 117.96146 118.19922"
   version="1.1"
   id="svg1"
   xmlns="http://www.w3.org/2000/svg"
   xmlns:svg="http://www.w3.org/2000/svg">
  <defs
     id="defs1" />
  <g
     id="layer1">
    <path
       style="fill:#000000;stroke-width:0.264583"
       d="M 54.989366,118.0889 C 50.077821,117.72836 45.215224,116.75767 40.34964,115.16645 21.367932,108.95877 6.59344,93.065712 1.685299,73.574851 0.47555803,68.770814 0.17085103,66.424462 0.02945403,60.824276 -0.17019597,52.916909 0.62963003,47.218718 2.903472,40.348958 4.153658,36.57188 7.24013,30.171792 9.410896,26.855208 20.372633,10.107419 39.020582,0 58.958116,0 74.32963,0 89.11302,5.988132 100.06303,16.649874 c 9.89454,9.634067 15.85346,21.664218 17.63646,35.605333 0.35891,2.806322 0.34653,10.619748 -0.0217,13.688706 -1.198,9.984806 -4.9342,19.661859 -10.61397,27.490962 -0.70095,0.966213 -1.27447,1.809596 -1.27447,1.874184 0,0.06459 1.89142,-0.366763 4.20314,-0.958554 3.39225,-0.868399 4.34921,-1.024609 4.96032,-0.809694 1.44877,0.509506 1.77343,2.619201 0.52749,3.427707 -0.63917,0.414766 -13.62487,3.837732 -14.55919,3.837732 -0.84486,0 -2.3344,-1.05775 -2.77244,-1.968763 -0.31435,-0.653767 -0.28654,-1.763724 0.20158,-8.046202 0.51904,-6.680475 0.61391,-7.338573 1.13837,-7.896844 0.77952,-0.829754 2.05128,-0.809643 2.85431,0.04514 0.59538,0.63376 0.60888,0.751346 0.43287,3.770313 -0.0999,1.713883 -0.25523,3.759732 -0.34511,4.54633 -0.11742,1.027509 -0.0795,1.378331 0.13453,1.246029 0.71764,-0.443524 4.23289,-6.155571 5.87716,-9.549987 4.05011,-8.361014 5.80686,-16.689184 5.46798,-25.921965 C 113.48208,45.361695 109.88928,35.253675 102.76213,25.665765 95.16591,15.446816 82.62993,7.5456941 70.07062,5.0610952 65.853729,4.2268719 63.196611,3.968755 58.825824,3.968755 c -6.37831,0 -11.289913,0.7937023 -17.312748,2.7976909 C 21.505941,13.423458 7.098892,30.871397 4.309761,51.822254 c -0.490674,3.685751 -0.485974,10.620978 0.0097,14.376172 2.328559,17.63953 13.204624,33.233045 28.97403,41.541394 6.666849,3.51253 14.818685,5.79723 22.057032,6.18188 1.62035,0.0861 3.263302,0.27619 3.650998,0.42242 0.965153,0.36401 1.445448,1.56225 1.029103,2.56739 -0.525881,1.26959 -1.305346,1.45163 -5.0413,1.17739 z M 55.25395,98.932805 C 54.017022,98.815198 51.873897,98.459556 50.49145,98.142492 34.430511,94.458939 22.352563,81.992283 19.098635,65.739358 c -0.667856,-3.335853 -0.667856,-11.461615 0,-14.797468 2.984717,-14.908252 13.295392,-26.610193 27.624558,-31.352061 9.906521,-3.278306 20.615337,-2.574023 30.094297,1.979202 9.83366,4.723604 17.82631,13.796902 21.13687,23.994668 1.53331,4.723199 1.88188,7.089765 1.88188,12.776925 0,4.564642 -0.084,5.666663 -0.61128,8.0211 -2.47875,11.067775 -8.54865,20.026109 -17.62079,26.005816 -7.88748,5.198867 -16.95648,7.458446 -26.35022,6.565265 z m 2.212294,-9.810144 c 0.349425,-0.740783 1.633194,-1.131668 2.515884,-0.766045 1.078253,0.446627 1.357238,1.284732 1.357238,4.077311 v 2.450695 l 2.050521,-0.215267 C 66.21452,94.372823 70.462,93.279623 73.13181,92.16202 c 1.22786,-0.513993 2.28502,-1.019569 2.34926,-1.123505 0.0642,-0.103937 -0.41246,-1.117571 -1.05933,-2.252523 -1.40146,-2.45891 -1.52068,-3.545305 -0.47898,-4.364707 1.4504,-1.140888 2.36062,-0.656502 3.95253,2.103398 0.66833,1.158677 1.30071,2.159569 1.4053,2.224212 0.30316,0.187362 3.66841,-2.446025 5.7166,-4.473376 2.11874,-2.097181 4.69222,-5.380615 4.5522,-5.808033 -0.051,-0.155713 -0.97582,-0.785977 -2.05512,-1.400588 -1.07931,-0.614611 -2.11192,-1.321975 -2.29469,-1.571924 -0.85696,-1.171961 0.0871,-3.263725 1.47292,-3.263725 0.36006,0 1.64967,0.542388 2.86581,1.205307 1.21614,0.662916 2.32174,1.136962 2.45689,1.053435 0.30448,-0.188179 1.76192,-3.914899 2.43544,-6.227492 0.53895,-1.850533 1.28176,-6.023176 1.2835,-7.209896 l 0.001,-0.727604 h -2.69492 c -2.4028,0 -2.76131,-0.06236 -3.30729,-0.575286 -0.77402,-0.727155 -0.80766,-2.025735 -0.0729,-2.814407 0.48855,-0.524405 0.8007,-0.579057 3.30729,-0.579057 h 2.76781 l -0.001,-0.727604 c -0.002,-1.205669 -0.74754,-5.368152 -1.31547,-7.342188 -0.64379,-2.237745 -2.09633,-5.905378 -2.41735,-6.103778 -0.12752,-0.07881 -1.22687,0.399097 -2.44301,1.062013 -1.21614,0.662919 -2.45092,1.205307 -2.74396,1.205307 -0.93812,0 -1.92707,-1.002265 -1.92707,-1.953008 0,-1.188358 0.37576,-1.600687 2.62698,-2.882641 1.07931,-0.614611 2.00548,-1.248987 2.05817,-1.409721 0.28061,-0.856126 -5.57628,-7.205081 -8.57482,-9.295217 -1.82662,-1.273255 -1.59347,-1.377863 -3.22516,1.447069 -1.47756,2.558114 -2.40895,3.021042 -3.8297,1.903482 -0.95054,-0.747697 -0.92075,-1.95951 0.0903,-3.674293 0.4331,-0.734544 0.97459,-1.697397 1.20329,-2.139672 l 0.41584,-0.80414 -1.9309,-0.891503 C 70.6633,23.33848 66.707,22.32534 62.46381,21.867513 l -1.124479,-0.121327 v 2.475915 c 0,2.817537 -0.277098,3.655123 -1.357239,4.102531 -0.975405,0.404027 -2.152927,-0.03944 -2.577189,-0.970589 -0.164399,-0.360815 -0.298905,-1.783787 -0.298905,-3.16216 0,-2.45913 -0.01117,-2.503818 -0.595313,-2.382713 -0.327422,0.06788 -1.309687,0.198027 -2.182812,0.289216 -3.120634,0.325919 -7.819935,1.694741 -10.483792,3.053739 l -1.044676,0.532952 0.952881,1.643399 c 1.552816,2.678081 1.737553,3.211049 1.424401,4.109363 -0.345202,0.990248 -1.569403,1.563949 -2.579352,1.20877 -0.494535,-0.173921 -1.090713,-0.923142 -2.025742,-2.545773 -0.728734,-1.264629 -1.384501,-2.302738 -1.457262,-2.306913 -0.356613,-0.02045 -4.04608,2.984942 -5.726504,4.664739 -1.843119,1.842434 -4.592246,5.236228 -4.592246,5.669124 0,0.117401 0.863203,0.711586 1.918229,1.320416 2.634073,1.520055 2.844271,1.73554 2.844271,2.91583 0,1.186733 -0.793787,2.085967 -1.84136,2.085967 -0.375785,0 -1.613632,-0.544626 -2.750775,-1.210283 -1.137139,-0.665655 -2.22342,-1.150462 -2.413957,-1.077347 -0.366715,0.140724 -1.954022,4.074142 -2.631496,6.520963 -0.492826,1.779937 -1.210328,5.878561 -1.210328,6.913825 v 0.759092 h 2.778125 c 3.20966,0 3.836458,0.324205 3.836458,1.984375 0,1.66017 -0.626798,1.984375 -3.836458,1.984375 h -2.778125 v 0.747125 c 0,3.263897 2.986447,13.540375 3.93497,13.540375 0.130612,0 1.173909,-0.534895 2.318441,-1.188657 2.305658,-1.317006 3.154632,-1.455092 4.015449,-0.653118 0.572315,0.533191 0.693406,0.942715 0.583708,1.974066 -0.08399,0.789641 -0.388578,1.060538 -2.675766,2.379787 -1.150263,0.663469 -2.090134,1.292408 -2.088605,1.397635 0.0061,0.419553 2.490827,3.483708 4.427654,5.460169 1.898885,1.937737 5.800016,5.126742 5.98038,4.888699 0.04308,-0.05685 0.64821,-1.088359 1.344736,-2.292231 0.696527,-1.20387 1.4838,-2.305198 1.749494,-2.447396 0.764006,-0.408882 1.693127,-0.303146 2.299393,0.261678 1.149289,1.070724 1.041496,1.701361 -0.847733,4.959641 l -0.952881,1.643399 1.001734,0.509749 c 2.717321,1.382757 7.884181,2.824569 11.349265,3.167012 l 1.823302,0.180192 0.142761,-2.645834 c 0.07852,-1.455208 0.235903,-2.843292 0.349742,-3.084629 z M 67.21838,75.736978 C 66.79289,75.36499 59.818126,63.634931 57.739675,59.795832 57.271464,58.931002 57.233152,58.054101 57.160071,46.529349 l -0.07825,-12.340442 0.631693,-0.734385 c 0.862444,-1.002649 2.150745,-1.008682 3.00627,-0.01408 l 0.619585,0.72031 0.0035,11.825348 0.0035,11.825351 4.626729,7.932557 c 2.544732,4.362908 4.626752,8.186619 4.626752,8.497134 0,0.310515 -0.24676,0.878287 -0.54837,1.261713 -0.65588,0.833818 -2.0183,0.946409 -2.83303,0.234119 z"
       id="path1" />
  </g>
</svg>
