<?xml version="1.0" encoding="UTF-8" standalone="no"?>
<!-- Created with Inkscape (http://www.inkscape.org/) -->

<svg
   width="135.46608mm"
   height="130.95998mm"
   viewBox="0 0 135.46608 130.95998"
   version="1.1"
   id="svg1"
   inkscape:version="1.3.2 (091e20e, 2023-11-25)"
   sodipodi:docname="itineraire.svg"
   xmlns:inkscape="http://www.inkscape.org/namespaces/inkscape"
   xmlns:sodipodi="http://sodipodi.sourceforge.net/DTD/sodipodi-0.dtd"
   xmlns="http://www.w3.org/2000/svg"
   xmlns:svg="http://www.w3.org/2000/svg">
  <sodipodi:namedview
     id="namedview1"
     pagecolor="#ffffff"
     bordercolor="#000000"
     borderopacity="0.25"
     inkscape:showpageshadow="2"
     inkscape:pageopacity="0.0"
     inkscape:pagecheckerboard="0"
     inkscape:deskcolor="#d1d1d1"
     inkscape:document-units="mm"
     inkscape:zoom="0.53546627"
     inkscape:cx="396.85039"
     inkscape:cy="562.12691"
     inkscape:window-width="1868"
     inkscape:window-height="1016"
     inkscape:window-x="52"
     inkscape:window-y="27"
     inkscape:window-maximized="1"
     inkscape:current-layer="layer1" />
  <defs
     id="defs1" />
  <g
     inkscape:label="Calque 1"
     inkscape:groupmode="layer"
     id="layer1">
    <path
       style="fill:#000000"
       d="m 102.92273,130.83488 c -0.3638,-0.11704 -8.415079,-4.0917 -17.891739,-8.83257 l -17.23028,-8.61977 -17.65645,8.48626 c -13.413955,6.44718 -17.89262,8.48626 -18.639359,8.48626 -0.718496,0 -4.85202,-1.75407 -15.365473,-6.52037 -7.9104079,-3.5862 -14.6157319,-6.72783 -14.9007209,-6.98139 -1.281193,-1.13991 -1.23890500399,0.12905 -1.23846700399,-37.163464 3.86e-4,-32.79836 0.029510004,-35.0567 0.46302100399,-35.90688 0.695619,-1.36419 1.731799,-2.00708 3.193991,-1.98169 1.020253,0.0177 3.262513,0.94454 12.7789219,5.2821 l 11.541553,5.26061 2.037482,4.08503 c 1.120615,2.24676 2.743244,5.2534 3.605842,6.68141 l 1.56836,2.5964 v 27.55385 c 0,22.553084 0.06266,27.529804 0.345265,27.421364 0.189896,-0.0729 6.738333,-3.19992 14.552084,-6.94899 l 14.20682,-6.8165 v -12.203494 -12.2035 l 3.57187,-3.6155 3.57188,-3.61551 v 15.86003 15.860044 l 14.28652,7.14423 c 7.8576,3.92932 14.346499,7.14423 14.419789,7.14423 0.0733,0 0.13327,-13.60384 0.13327,-30.230754 v -30.23074 l -7.646089,-3.83436 -7.64608,-3.83436 1.34367,-3.30729 c 0.73901,-1.81901 1.3688,-3.34392 1.39952,-3.38869 0.0307,-0.0448 3.7597,1.77126 8.2866,4.03563 l 8.230729,4.11702 13.21907,-4.23406 c 8.62973,-2.7641 13.61304,-4.23372 14.35384,-4.23308 1.43524,10e-4 2.63512,0.72197 3.20646,1.92599 0.40583,0.85522 0.44182,3.78553 0.44144,35.94843 -3.9e-4,32.815174 -0.0295,35.074354 -0.46302,35.924534 -0.25444,0.49898 -0.76944,1.13193 -1.14446,1.40656 -0.67033,0.4909 -27.92996,9.34704 -29.48065,9.57771 -0.43656,0.0649 -1.09141,0.0223 -1.45521,-0.0947 z m 22.75417,-14.28901 2.24896,-0.7023 0.0673,-30.483464 c 0.04,-18.15102 -0.03,-30.48345 -0.17314,-30.48345 -0.24011,0 -2.40172,0.68016 -13.98318,4.39988 l -6.15156,1.97576 v 30.51398 30.513974 l 7.87136,-2.51604 c 4.32925,-1.38383 8.88338,-2.83208 10.12031,-3.21834 z m -97.902778,-25.884324 -0.007,-30.36094 -9.936342,-4.49791 c -5.464988,-2.47386 -10.0462669,-4.53777 -10.1806199,-4.58649 -0.148659,-0.0539 -0.217949,11.79742 -0.177014,30.2767 l 0.06727,30.365264 10.0541659,4.56901 c 5.529791,2.51295 10.083932,4.57493 10.120312,4.58216 0.03638,0.007 0.06301,-13.64928 0.05919,-30.347794 z m 26.862169,-12.80213 c -1.74656,-1.08217 -5.82172,-5.25829 -8.49595,-8.70643 -8.173053,-10.53827 -14.285927,-22.82818 -16.26869,-32.70814 -0.678649,-3.38165 -0.808773,-9.36686 -0.272294,-12.52444 2.12827,-12.52646 8.556545,-20.3209296 18.969634,-23.00120956 6.03772,-1.55408 14.16652,-1.10319 19.69333,1.09236996 3.7065,1.47243 7.85238,4.72914 10.17528,7.9929896 3.56893,5.01461 5.35088,10.81602 5.61853,18.29196 0.17197,4.80344 -0.16631,7.5156 -1.5332,12.29264 -3.23039,11.28965 -11.95423,26.09979 -20.18759,34.2717 -2.59541,2.57604 -4.44362,3.83125 -5.62951,3.82327 -0.41065,-0.003 -1.34194,-0.37389 -2.06954,-0.82471 z m 4.39451,-38.86324 c 2.22726,-0.42239 4.5014,-1.62591 6.10788,-3.23239 2.57233,-2.57233 3.70472,-5.25527 3.68868,-8.73959 -0.0499,-10.85411 -13.16058,-16.21225 -20.77377,-8.48997 -2.70714,2.74593 -3.96789,6.63651 -3.36456,10.38281 1.09668,6.8098 7.57476,11.36247 14.34177,10.07914 z"
       id="path1" />
  </g>
</svg>
