<?xml version="1.0" encoding="UTF-8" standalone="no"?>
<!-- Created with Inkscape (http://www.inkscape.org/) -->

<svg
   width="175.75699mm"
   height="182.82709mm"
   viewBox="0 0 175.75699 182.82709"
   version="1.1"
   id="svg1"
   xmlns="http://www.w3.org/2000/svg"
   xmlns:svg="http://www.w3.org/2000/svg">
  <defs
     id="defs1" />
  <g
     id="layer1"
     transform="translate(-19.057169,-63.000636)">
    <path
       style="fill:#000000"
       d="m 88.547119,245.18483 c -13.89949,-2.90511 -26.22975,-8.46458 -37.30971,-16.82222 -5.06076,-3.81734 -4.91904,-3.23907 -1.40003,-5.71275 3.31957,-2.33349 6.3687,-4.2806 8.94411,-5.71154 3.25671,-1.80947 7.6881,-3.94078 7.90933,-3.80405 0.12192,0.0753 0.80321,1.17584 1.51399,2.44554 5.0662,9.05013 12.49449,18.63652 20.72193,26.74218 2.38751,2.35218 3.38933,3.50004 3.04459,3.48844 -0.28259,-0.01 -1.82348,-0.29103 -3.42421,-0.6256 z m 36.397461,-2.86284 c 8.22744,-8.10566 15.65573,-17.69205 20.72193,-26.74218 0.71077,-1.2697 1.39237,-2.37038 1.51465,-2.44595 0.2083,-0.12874 5.26111,2.29431 7.90867,3.79257 2.65137,1.50041 6.11544,3.71454 8.96096,5.72757 l 3.00784,2.12786 -1.02346,0.89274 c -0.56291,0.49101 -2.34468,1.88835 -3.95949,3.10519 -9.23462,6.95872 -20.55708,12.36704 -31.98898,15.27995 -3.37013,0.85873 -7.69756,1.76798 -8.41438,1.76798 -0.15737,0 1.31514,-1.57758 3.27226,-3.50573 z m -26.663941,-5.02708 c -5.51826,-5.18612 -9.83748,-9.99344 -13.92415,-15.49764 -3.52482,-4.74747 -8.29891,-12.34232 -7.90379,-12.57371 0.44748,-0.26206 5.02857,-1.55947 8.03374,-2.27524 5.42218,-1.29144 12.83765,-2.3956 16.088791,-2.3956 h 1.33335 v 17.99167 c 0,9.89541 -0.0403,17.99166 -0.0896,17.99166 -0.0493,0 -1.64154,-1.45851 -3.538331,-3.24114 z m 13.682101,-14.72589 v -18.0163 h 1.33335 c 3.25114,0 10.66661,1.10416 16.08879,2.3956 3.00517,0.71577 7.58626,2.01318 8.03374,2.27524 0.39507,0.23136 -4.99611,8.7537 -8.32801,13.16485 -4.06224,5.37807 -11.72383,13.6522 -15.8711,17.13999 l -1.25677,1.05693 z m -73.951041,-6.30141 c -6.15579,-7.01517 -10.62366,-13.61298 -14.2781,-21.08483 -1.48061,-3.02726 -3.9641,-8.92445 -4.49518,-10.67408 l -0.18125,-0.59714 18.19863,0.068 18.19863,0.068 0.24857,0.92604 c 1.19982,4.46997 3.15939,10.4423 4.68108,14.26693 1.00872,2.53531 1.80493,4.63039 1.76937,4.65575 -0.0356,0.0254 -1.32771,0.64432 -2.87143,1.37547 -5.24304,2.48325 -12.94193,7.20887 -17.63652,10.82539 -1.20286,0.92664 -2.21489,1.68329 -2.24896,1.68146 -0.0341,-0.002 -0.65724,-0.68176 -1.38484,-1.51094 z m 134.805211,0.28589 c -3.83518,-3.13595 -12.98233,-8.79748 -18.22761,-11.2818 -1.54372,-0.73115 -2.83728,-1.35153 -2.87459,-1.37863 -0.0373,-0.0271 0.69887,-1.96162 1.63593,-4.29896 1.64662,-4.10719 3.56647,-9.8633 4.56756,-13.69452 l 0.48395,-1.85208 18.206,-0.068 18.206,-0.068 -0.18125,0.59714 c -0.0997,0.32843 -0.77036,2.08542 -1.49038,3.90443 -2.86736,7.24393 -7.04685,14.76402 -11.63314,20.93133 -2.17696,2.92742 -6.67696,8.25423 -7.05566,8.35203 -0.0999,0.0258 -0.83644,-0.48855 -1.63681,-1.14299 z M 70.329469,196.95561 c -1.16777,-2.8355 -3.81887,-10.53121 -4.24165,-12.31279 l -0.17266,-0.7276 h 17.99671 17.996711 v 5.15937 c 0,3.94966 -0.0776,5.16002 -0.33073,5.16211 -0.1819,10e-4 -1.759481,0.12528 -3.505731,0.27507 -7.21061,0.6185 -15.31751,2.17749 -22.09271,4.24852 -1.96453,0.60051 -3.75047,1.14179 -3.96875,1.20283 -0.29136,0.0815 -0.73835,-0.71813 -1.68119,-3.00751 z m 70.737441,2.79904 c -3.24278,-1.30704 -12.88262,-3.61815 -18.58302,-4.45518 -2.90587,-0.4267 -8.90302,-1.05215 -10.19042,-1.06277 -0.25318,-0.002 -0.33073,-1.21245 -0.33073,-5.16211 v -5.15937 h 17.99167 c 9.89542,0 17.99167,0.0506 17.99167,0.11254 0,0.0619 -0.48621,1.69901 -1.08046,3.63802 -1.3525,4.41313 -4.48699,12.39465 -4.85881,12.37225 -0.15314,-0.009 -0.5761,-0.13674 -0.9399,-0.28338 z M 44.122339,168.08104 c -0.0801,-0.12956 -1.10974,-3.2576 -2.28816,-6.95121 -1.17841,-3.6936 -3.02657,-9.4765 -4.10701,-12.85089 -1.08043,-3.37438 -1.96443,-6.26165 -1.96443,-6.41614 0,-0.1874 1.51923,-0.27999 4.56406,-0.27815 l 4.56407,0.003 2.24895,7.38918 c 1.23693,4.06405 2.33322,7.30636 2.43619,7.20512 0.10298,-0.10123 1.23407,-3.42735 2.51355,-7.39136 l 2.32631,-7.20731 4.14935,-5.7e-4 c 3.72578,-5.1e-4 4.16273,0.0467 4.28033,0.46245 0.36822,1.30178 4.19174,14.01279 4.31763,14.35365 0.18672,0.50553 -0.0367,1.11988 2.74286,-7.54063 l 2.2928,-7.14375 4.30241,-0.0728 c 3.39974,-0.0576 4.27627,-0.002 4.17778,0.26458 -0.0685,0.18559 -0.31246,0.93274 -0.54203,1.66035 -0.52097,1.65118 -3.8092,11.96909 -6.13432,19.24844 l -1.75361,5.4901 h -4.81999 -4.82 l -1.42235,-4.69635 c -2.66986,-8.81542 -2.88508,-9.45854 -3.03271,-9.06198 -0.0813,0.21828 -1.09233,3.37343 -2.24684,7.01146 l -2.09909,6.61458 -4.77008,0.072 c -2.62355,0.0396 -4.8356,-0.034 -4.91567,-0.16352 z m 44.16951,-11.21946 c -2.01345,-6.29378 -3.93217,-12.30915 -4.26384,-13.36749 l -0.60302,-1.92426 4.65024,0.0722 4.65024,0.0722 2.25209,7.35332 c 1.23865,4.04432 2.33835,7.25901 2.44378,7.14375 0.10543,-0.11526 1.04585,-2.88847 2.08983,-6.16269 1.043971,-3.27422 2.079571,-6.51867 2.301331,-7.2099 l 0.40319,-1.25677 h 4.18122 c 4.12128,0 4.18309,0.009 4.31089,0.59532 0.27112,1.2447 4.22478,14.09754 4.38945,14.2695 0.095,0.0993 1.24435,-3.20335 2.55404,-7.3391 l 2.38125,-7.51955 4.27899,-0.003 4.279,-0.003 -0.59849,1.91823 c -0.32918,1.05503 -2.24534,7.06768 -4.25815,13.36146 l -3.65965,11.44323 h -4.83829 -4.8383 l -0.56602,-1.91823 c -1.06134,-3.59688 -3.43484,-11.44214 -3.58208,-11.8401 -0.12718,-0.34372 -1.49369,3.65222 -3.95853,11.57552 l -0.67905,2.18281 h -4.829661 -4.82966 z m 50.696221,8.99583 c -0.42943,-1.34606 -2.29715,-7.20989 -4.15049,-13.03073 -1.85334,-5.82083 -3.42532,-10.73216 -3.49329,-10.91406 -0.0959,-0.2567 0.91435,-0.33073 4.51367,-0.33073 h 4.63726 l 0.40416,1.25677 c 0.22229,0.69123 1.19662,3.87615 2.16518,7.07761 0.96856,3.20146 1.85324,5.98834 1.96596,6.19307 0.12879,0.23394 1.1061,-2.39829 2.63029,-7.08426 l 2.42535,-7.45651 4.13141,0.0728 4.13141,0.0728 1.53991,5.02709 c 0.84694,2.76489 1.85796,6.1343 2.24671,7.48756 0.38874,1.35327 0.7905,2.3653 0.8928,2.24896 0.1023,-0.11634 1.23511,-3.51551 2.51736,-7.55371 l 2.33136,-7.34219 h 4.18969 c 2.93637,0 4.18969,0.0894 4.18969,0.29878 0,0.28221 -7.64258,24.29106 -8.19457,25.7429 l -0.259,0.68124 h -4.77736 c -3.58807,0 -4.80415,-0.0823 -4.88501,-0.33073 -0.0592,-0.1819 -0.96457,-3.18823 -2.01191,-6.68073 -1.04734,-3.4925 -1.98286,-6.5001 -2.07895,-6.68356 -0.0961,-0.18346 -1.17544,2.82287 -2.39856,6.68073 l -2.22385,7.01429 h -4.82923 -4.82922 z M 19.786979,123.12902 c 3.68003,-9.81 8.51931,-18.52048 14.36973,-25.864841 2.14793,-2.696426 7.57578,-8.752518 8.29782,-9.258256 0.41531,-0.290898 0.89329,-0.05239 3.70554,1.849036 5.23778,3.541389 13.0988,7.854065 17.56443,9.636115 l 0.84198,0.335996 -0.94215,2.02585 c -2.89086,6.21606 -5.32498,12.77547 -7.23191,19.48834 l -0.97708,3.43959 -18.1495,0.068 -18.14951,0.068 z m 46.29657,1.05652 c 0.39371,-1.70121 2.651,-8.38474 3.85078,-11.40164 1.06169,-2.66969 3.80015,-8.85074 4.11059,-9.27813 0.0433,-0.0596 1.12136,0.2083 2.39568,0.5954 7.03997,2.13854 14.22394,3.43976 23.682041,4.28947 l 1.78594,0.16045 v 8.18102 8.18103 H 83.911869 65.915159 Z m 45.879191,-7.45343 v -8.18102 l 1.78594,-0.16045 c 9.4581,-0.84971 16.64207,-2.15093 23.68204,-4.28947 1.27432,-0.3871 2.35237,-0.65503 2.39568,-0.5954 0.31044,0.42739 3.0489,6.60844 4.11059,9.27813 1.19978,3.0169 3.45707,9.70043 3.85078,11.40164 l 0.16839,0.7276 h -17.99671 -17.99671 z m 46.43883,7.8503 c -0.0612,-0.1819 -0.54578,-1.86938 -1.07689,-3.74996 -1.76509,-6.24995 -4.19438,-12.76403 -7.0711,-18.96097 l -0.93182,-2.007287 3.41034,-1.532068 c 4.1787,-1.877247 10.54403,-5.476914 14.92839,-8.442176 2.85711,-1.932343 3.34089,-2.17499 3.7563,-1.884026 0.26225,0.183688 1.80975,1.806159 3.43889,3.605492 8.93564,9.869155 14.57526,19.112815 19.22798,31.515785 l 0.66996,1.78594 h -18.12041 c -14.26061,0 -18.1441,-0.0704 -18.23164,-0.33073 z M 95.558579,97.770012 c -4.81435,-0.575086 -15.50027,-2.821032 -16.05329,-3.37405 -0.32131,-0.321312 3.50444,-5.85146 7.35073,-10.625534 3.96703,-4.92393 7.77264,-8.925877 13.00204,-13.672839 l 2.050521,-1.86135 V 83.21323 98.19022 l -1.65365,-0.02837 C 99.345419,98.14624 97.232069,97.969919 95.558579,97.770016 Z M 111.96274,83.210473 V 68.230728 l 1.12448,0.998569 c 6.84599,6.07943 13.47834,13.440122 18.34713,20.361965 2.28381,3.246848 3.12156,4.61482 2.93833,4.798055 -0.20729,0.207284 -4.63368,1.333258 -8.21503,2.089717 -3.64424,0.769741 -10.65882,1.711186 -12.74982,1.711186 h -1.44509 z m -44.979171,6.680265 c -4.81944,-2.130614 -13.17277,-6.773191 -15.54652,-8.64038 l -0.61464,-0.483481 2.68505,-1.903744 c 9.05404,-6.419463 19.98337,-11.456566 30.67403,-14.137037 2.9787,-0.746848 7.5953,-1.72546 8.13987,-1.72546 0.0791,0 -1.51997,1.637109 -3.55361,3.638021 -6.45341,6.349556 -12.47859,13.701819 -17.14688,20.923572 -1.14469,1.770812 -2.20988,3.216534 -2.36709,3.212716 -0.15721,-0.0038 -1.1788,-0.401711 -2.27021,-0.884207 z M 142.26014,87.577213 C 137.57642,80.331596 131.85533,73.328668 125.3704,66.90324 c -2.16631,-2.146432 -3.87975,-3.902604 -3.80764,-3.902604 0.53314,0 5.18092,0.986772 8.12707,1.72546 10.69066,2.680471 21.61999,7.717574 30.67403,14.137037 l 2.68505,1.903744 -0.61465,0.483481 c -2.65037,2.084783 -15.22079,8.87114 -17.41016,9.399176 -0.62203,0.150022 -0.83145,-0.08276 -2.76396,-3.072321 z"
       id="path1" />
  </g>
</svg>
