<?xml version="1.0" encoding="UTF-8" standalone="no"?>
<!-- Uploaded to: SVG Repo, www.svgrepo.com, Generator: SVG Repo Mixer Tools -->

<svg
   height="800"
   width="800"
   version="1.1"
   id="Layer_1"
   viewBox="0 0 502 502"
   xml:space="preserve"
   xmlns="http://www.w3.org/2000/svg"
   xmlns:svg="http://www.w3.org/2000/svg"><defs
   id="defs11" />
<g
   id="g11">
	<path
   style="fill:#7b7b7b"
   d="M 444.027,120 H 425 V 35 h 19.027 C 457.819,35 469,46.181 469,59.973 V 95.027 C 469,108.819 457.819,120 444.027,120 Z"
   id="path1" />
	<path
   style="fill:#7b7b7b"
   d="M 444.027,120 H 425.5 V 10 h -355 v 482 h 355 V 205 h 18.527 C 457.819,205 469,193.819 469,180.027 V 144.973 C 469,131.181 457.819,120 444.027,120 Z"
   id="path2" />
	<g
   id="g10">
		<path
   style="fill:#7b7b7b"
   d="M 444.027,290 H 425 v -85 h 19.027 C 457.819,205 469,216.181 469,229.973 v 35.054 C 469,278.819 457.819,290 444.027,290 Z"
   id="path3" />
		<g
   id="g9">
			<path
   d="M 109,241 H 99 c -5.522,0 -10,4.478 -10,10 0,5.522 4.478,10 10,10 h 10 c 5.522,0 10,-4.478 10,-10 0,-5.522 -4.478,-10 -10,-10 z"
   id="path4" />
			<path
   d="m 33,357 h 11 c 5.522,0 10,-4.478 10,-10 0,-5.522 -4.478,-10 -10,-10 H 33 c -5.522,0 -10,4.478 -10,10 0,5.522 4.478,10 10,10 z"
   id="path5" />
			<path
   d="M 109,337 H 98 c -5.522,0 -10,4.478 -10,10 0,5.522 4.478,10 10,10 h 11 c 5.522,0 10,-4.478 10,-10 0,-5.522 -4.478,-10 -10,-10 z"
   id="path6" />
			<path
   d="m 389,38 c -5.522,0 -10,4.478 -10,10 v 108 c 0,5.522 4.478,10 10,10 5.522,0 10,-4.478 10,-10 V 48 c 0,-5.522 -4.478,-10 -10,-10 z"
   id="path7" />
			<path
   d="m 389,190 c -5.522,0 -10,4.478 -10,10 v 24 c 0,5.522 4.478,10 10,10 5.522,0 10,-4.478 10,-10 v -24 c 0,-5.522 -4.478,-10 -10,-10 z"
   id="path8" />
			<path
   d="M 479,95.027 V 59.973 C 479,40.688 463.312,25 444.027,25 H 435.5 V 10 c 0,-5.522 -4.478,-10 -10,-10 h -355 c -5.522,0 -10,4.478 -10,10 V 49 H 33 c -5.522,0 -10,4.478 -10,10 0,5.522 4.478,10 10,10 h 27.5 v 76 H 33 c -5.522,0 -10,4.478 -10,10 0,5.522 4.478,10 10,10 h 27.5 v 76 H 33 c -5.522,0 -10,4.478 -10,10 0,5.522 4.478,10 10,10 H 60.5 V 433 H 33 c -5.522,0 -10,4.478 -10,10 0,5.522 4.478,10 10,10 h 27.5 v 39 c 0,5.522 4.478,10 10,10 h 355 c 5.522,0 10,-4.478 10,-10 V 300 h 8.527 C 463.312,300 479,284.312 479,265.027 v -35.055 c 0,-9.775 -4.035,-18.62 -10.522,-24.973 C 474.965,198.647 479,189.801 479,180.026 v -35.055 c 0,-9.775 -4.035,-18.62 -10.522,-24.973 C 474.965,113.648 479,104.802 479,95.027 Z M 415.5,482 H 80.5 V 453 H 109 c 5.522,0 10,-4.478 10,-10 0,-5.522 -4.478,-10 -10,-10 H 80.5 V 165 H 109 c 5.522,0 10,-4.478 10,-10 0,-5.522 -4.478,-10 -10,-10 H 80.5 V 69 H 109 c 5.522,0 10,-4.478 10,-10 0,-5.522 -4.478,-10 -10,-10 H 80.5 V 20 h 335 z M 459,229.973 v 35.055 c 0,8.256 -6.717,14.973 -14.973,14.973 H 435.5 v -65 h 8.527 C 452.283,215 459,221.717 459,229.973 Z m 0,-85 v 35.055 c 0,8.256 -6.717,14.973 -14.973,14.973 H 435.5 v -65 h 8.527 C 452.283,130 459,136.717 459,144.973 Z M 435.5,110 V 45 h 8.527 C 452.283,45 459,51.717 459,59.973 v 35.055 c 0,8.256 -6.717,14.973 -14.973,14.973 z"
   id="path9" />
		</g>
	</g>
</g>
</svg>
