<?xml version="1.0" encoding="UTF-8" standalone="no"?>
<!-- Svg Vector Icons : http://www.onlinewebfonts.com/icon -->

<svg
   version="1.1"
   x="0px"
   y="0px"
   viewBox="0 0 235.99998 236"
   enable-background="new 0 0 256 256"
   xml:space="preserve"
   id="svg5"
   width="235.99998"
   height="236"
   xmlns="http://www.w3.org/2000/svg"
   xmlns:svg="http://www.w3.org/2000/svg"><defs
   id="defs5" />
<metadata
   id="metadata1"> Svg Vector Icons : http://www.onlinewebfonts.com/icon </metadata>
<g
   id="g5"
   transform="matrix(1.1428571,0,0,1,-28.342856,-10)"><g
     id="g4"><path
       fill="#000000"
       d="m 231.3,157.5 h -0.5 L 208.6,10 H 47.4 L 25.3,157.5 H 24.8 V 246 H 231.3 Z M 53.7,17.4 h 148.5 l 21,140.1 h -58.4 v 3.7 c 0,20.3 -16.5,36.9 -36.9,36.9 -20.3,0 -36.9,-16.5 -36.9,-36.9 v -3.7 H 32.7 Z M 223.9,238.6 H 32.1 v -73.8 h 51.8 c 1.9,22.7 21,40.6 44.1,40.6 23.1,0 42.2,-17.9 44.1,-40.6 h 51.8 z"
       id="path1" /><path
       fill="#000000"
       d="M 54.3,120.6 H 201.8 V 128 H 54.3 Z"
       id="path2" /><path
       fill="#000000"
       d="m 61.6,83.8 h 132.8 v 7.4 H 61.6 Z"
       id="path3" /><path
       fill="#000000"
       d="m 69,46.9 h 118 v 7.4 H 69 Z"
       id="path4" /></g></g>
</svg>
