<?xml version="1.0" encoding="utf-8"?>
<!-- Svg Vector Icons : http://www.onlinewebfonts.com/icon -->
<!DOCTYPE svg PUBLIC "-//W3C//DTD SVG 1.1//EN" "http://www.w3.org/Graphics/SVG/1.1/DTD/svg11.dtd">
<svg version="1.1" xmlns="http://www.w3.org/2000/svg" xmlns:xlink="http://www.w3.org/1999/xlink" x="0px" y="0px" viewBox="0 0 256 256" enable-background="new 0 0 256 256" xml:space="preserve">
<metadata> Svg Vector Icons : http://www.onlinewebfonts.com/icon </metadata>
<g><g><path fill="#000000" d="M231.3,157.5h-0.5L208.6,10H47.4L25.3,157.5h-0.5V246h206.5V157.5z M53.7,17.4h148.5l21,140.1h-58.4v3.7c0,20.3-16.5,36.9-36.9,36.9c-20.3,0-36.9-16.5-36.9-36.9v-3.7H32.7L53.7,17.4z M223.9,238.6H32.1v-73.8h51.8c1.9,22.7,21,40.6,44.1,40.6c23.1,0,42.2-17.9,44.1-40.6h51.8V238.6z"/><path fill="#000000" d="M54.3,120.6h147.5v7.4H54.3V120.6z"/><path fill="#000000" d="M61.6,83.8h132.8v7.4H61.6V83.8z"/><path fill="#000000" d="M69,46.9h118v7.4H69V46.9z"/></g></g>
</svg>