<?xml version="1.0" encoding="UTF-8" standalone="no"?>
<svg
   class="svg-icon"
   style="overflow:hidden;fill:currentColor"
   viewBox="0 0 603.8158 603.25482"
   version="1.1"
   id="svg2"
   width="603.8158"
   height="603.25482"
   xmlns="http://www.w3.org/2000/svg"
   xmlns:svg="http://www.w3.org/2000/svg">
  <defs
     id="defs2" />
  <path
     d="m 336.08372,12.427568 c -18.64135,-16.5700905 -46.60338,-16.5700905 -65.24473,0 L 7.7888074,262.01455 c -9.8384905,9.32067 -10.3563105,24.33732 -1.55345,34.17581 8.8028596,9.83849 23.8194996,10.3563 34.1758096,1.55344 l 4.14252,-4.14252 V 554.5802 c 0,26.92639 21.74825,48.67464 48.674635,48.67464 H 234.59192 V 457.23092 c 0,-18.64135 15.01665,-34.17581 34.17581,-34.17581 h 66.28036 c 18.64135,0 34.17581,15.53446 34.17581,34.17581 v 146.02392 h 144.47047 c 26.9264,0 48.67464,-21.74825 48.67464,-48.67464 V 297.22599 c 10.87412,9.83849 25.89077,8.80286 35.21144,-1.03563 8.80286,-9.83849 8.28505,-25.37295 -1.55344,-34.17581 z"
     fill="#7b7b7b"
     id="path2" />
</svg>
