<?xml version="1.0" encoding="UTF-8" standalone="no"?>
<!-- Created with Inkscape (http://www.inkscape.org/) -->

<svg
   width="259.11435mm"
   height="259.12228mm"
   viewBox="0 0 259.11435 259.12228"
   version="1.1"
   id="svg1"
   xmlns="http://www.w3.org/2000/svg"
   xmlns:svg="http://www.w3.org/2000/svg">
  <defs
     id="defs1" />
  <g
     id="layer1">
    <path
    style="fill:#0000ff"
      
       class="fill-red-400"
       d="m 121.8046,258.96025 c -19.28827,-0.91506 -35.987279,-5.45166 -47.319223,-12.85516 -2.898224,-1.8935 -7.147084,-6.08759 -9.006925,-8.89083 -3.839951,-5.78774 -5.871379,-12.08555 -6.517043,-20.20406 -0.681549,-8.5697 1.605761,-16.09963 7.130172,-23.47288 0.592107,-0.79027 1.076559,-1.54103 1.076559,-1.66836 0,-0.12732 -0.653517,-1.34192 -1.45226,-2.6991 -2.816482,-4.78561 -4.10399,-8.4834 -4.10399,-11.78686 0,-15.04982 10.39382,-47.24672 23.834336,-73.83154 9.461909,-18.715295 22.850144,-39.074465 35.585034,-54.113285 7.3025,-8.62365 10.37276,-10.56782 18.98604,-12.02245 4.48129,-0.75681 12.78654,-1.19414 15.57412,-0.8201 5.27992,0.70848 6.55267,2.52944 6.55899,9.38416 0.004,4.0482 -0.48675,7.69893 -1.71081,12.73396 -1.66261,6.83892 -3.50575,12.14422 -5.90989,17.01107 -1.85108,3.74725 -3.34968,5.61782 -5.87216,7.32971 -2.28123,1.54816 -4.43451,2.28588 -8.46442,2.89992 -8.49846,1.29494 -13.37514,7.01746 -23.68459,27.792635 -9.07783,18.29327 -13.65773,31.71006 -13.30964,38.99056 0.0944,1.97523 0.24909,2.60627 1.05013,4.28478 0.51666,1.08263 1.79106,3.03998 2.83199,4.34966 1.04093,1.30969 2.17905,2.94829 2.52916,3.64133 0.61707,1.2215 0.62483,1.31062 0.25342,2.91042 -0.53115,2.28786 -3.01408,8.43278 -4.94318,12.23367 -4.61949,9.10176 -13.578511,19.16701 -20.118211,22.60234 -2.896154,1.52136 -5.425721,0.91828 -9.196736,-2.19261 l -1.749124,-1.44293 -1.348587,2.04419 c -2.4379,3.69537 -3.279993,6.40174 -3.26539,10.49451 0.03668,10.27916 6.962886,18.76114 20.047717,24.55084 15.769461,6.97759 40.998121,8.98668 61.618671,4.90702 29.92734,-5.92096 56.43055,-23.65202 73.36269,-49.0808 8.80878,-13.22906 14.82691,-28.47073 17.51596,-44.36131 1.9528,-11.5398 1.94937,-25.08407 -0.009,-36.84208 -5.159,-30.967385 -23.28952,-58.790855 -49.85924,-76.514495 -11.72679,-7.8225 -25.07581,-13.4216 -38.89375,-16.31357 -7.94873,-1.66359 -14.73687,-2.3379 -23.54791,-2.33916 -12.92825,-0.002 -23.92027,1.76647 -35.851038,5.76747 -16.640784,5.58049 -30.882923,14.24405 -43.227848,26.29568 -6.377806,6.22628 -10.530741,11.16035 -15.155691,18.00637 -19.738217,29.21721 -24.919266,66.279695 -13.794121,98.675825 4.048724,11.78978 11.423662,24.97418 21.250444,37.99006 1.778916,2.35623 3.309066,4.40488 3.400334,4.55256 0.09671,0.15648 -0.634232,0.51076 -1.752025,0.84918 -1.215739,0.36808 -2.78955,1.15495 -4.298493,2.14916 -1.309289,0.86266 -2.559445,1.53452 -2.778124,1.49303 -0.294654,-0.0559 -0.431851,-0.56922 -0.52989,-1.98253 -0.183976,-2.65214 -0.293815,-2.72993 -4.241896,-3.00427 -1.779605,-0.12365 -3.631032,-0.35532 -4.114281,-0.5148 -2.056439,-0.67869 -9.413377,-10.3694 -14.152917,-18.64253 C -0.26248437,162.00382 -3.9937734,127.09691 4.4601386,95.887415 12.551327,66.016985 30.537521,40.562155 56.187932,22.680025 71.27489,12.162185 89.570584,4.719015 107.75061,1.702975 116.10124,0.31761503 119.91726,0.01488503 129.21293,3.1502988e-4 139.80008,-0.01628497 146.51662,0.62057503 155.80355,2.521605 c 30.80608,6.30601 57.80944,23.43627 77.10912,48.9161 5.29963,6.99668 9.17536,13.29097 13.11491,21.29895 7.13683,14.50715 11.14013,28.716425 12.74691,45.243765 0.51095,5.25554 0.43147,18.62188 -0.14237,23.94479 -1.80603,16.75267 -6.1257,31.37519 -13.67819,46.30208 -12.53675,24.77787 -32.87388,44.88768 -57.79726,57.15126 -20.75941,10.21469 -42.23729,14.6783 -65.35207,13.5817 z M 99.023559,213.4183 c -2.214924,-0.78668 -6.123997,-2.78671 -9.068694,-4.63989 l -1.687233,-1.06181 0.761191,-0.54971 c 6.005858,-4.33724 12.643567,-11.03435 16.804857,-16.95523 4.05452,-5.76897 7.77254,-13.78132 9.48446,-20.43906 0.15903,-0.61846 0.37385,-1.12188 0.47738,-1.1187 0.46315,0.0142 6.45935,4.5346 8.17653,6.1641 2.33539,2.21616 3.37261,3.79115 3.93032,5.96813 0.9825,3.83506 -0.98811,10.53316 -4.98814,16.95475 -2.17221,3.48723 -5.61009,7.87921 -8.09077,10.33614 -4.3308,4.28936 -7.24902,5.84396 -11.27511,6.00648 -2.09528,0.0846 -2.63868,0.005 -4.524791,-0.6652 z M 168.10667,91.446415 c -1.92433,-0.16507 -5.76452,-1.12676 -9.85573,-2.46817 -2.21919,-0.72762 -4.03489,-1.38538 -4.03489,-1.46169 0,-0.0763 0.40306,-0.63504 0.89569,-1.24161 1.25741,-1.54824 3.58395,-5.19333 5.01023,-7.84974 5.00577,-9.32314 8.38158,-22.96761 8.38158,-33.87697 0,-3.1368 -0.51133,-3.03121 4.43565,-0.91597 10.3149,4.41044 13.03671,8.16098 12.67288,17.46273 -0.25502,6.51989 -1.77997,12.50634 -4.78934,18.80132 -4.07881,8.53203 -7.86013,11.96664 -12.71607,11.5501 z"
       id="path1" />
  </g>
</svg>
